<svg width="78" height="78" viewBox="0 0 78 78" fill="none" xmlns="http://www.w3.org/2000/svg">
<path d="M9.75 26C9.75 22.9714 9.75 21.4571 10.2448 20.2625C10.9045 18.6699 12.1699 17.4045 13.7625 16.7448C14.9571 16.25 16.4714 16.25 19.5 16.25H58.5C61.5287 16.25 63.0428 16.25 64.2375 16.7448C65.83 17.4045 67.0956 18.6699 67.7553 20.2625C68.25 21.4571 68.25 22.9714 68.25 26V52C68.25 55.0287 68.25 56.5429 67.7553 57.7376C67.0956 59.3301 65.83 60.5956 64.2375 61.2554C63.0428 61.75 61.5287 61.75 58.5 61.75H19.5C16.4714 61.75 14.9571 61.75 13.7625 61.2554C12.1699 60.5956 10.9045 59.3301 10.2448 57.7376C9.75 56.5429 9.75 55.0287 9.75 52V26Z" stroke="#263056" stroke-width="5.33333" stroke-linejoin="round"/>
<path d="M13 19.5L34.7197 38.5047C37.1702 40.649 40.8298 40.649 43.2803 38.5047L65 19.5" stroke="#263056" stroke-width="5.33333" stroke-linecap="round" stroke-linejoin="round"/>
</svg>
