<svg width="70" height="70" viewBox="0 0 70 70" fill="none" xmlns="http://www.w3.org/2000/svg">
<path d="M49.9625 41.5188C49.1313 41.125 45.15 39.1563 44.4063 38.85C43.6625 38.5438 43.1375 38.4563 42.5688 39.2875C42 40.1188 40.4688 41.9125 39.9875 42.4813C39.5063 43.05 39.0688 43.0938 38.2375 42.4813C35.85 41.5231 33.6449 40.1616 31.7188 38.4563C29.9751 36.8146 28.4989 34.9104 27.3438 32.8125C26.8625 32.025 27.3438 31.5875 27.6938 31.15C28.0438 30.7125 28.4813 30.2313 28.9188 29.75C29.2387 29.3338 29.5034 28.878 29.7063 28.3938C29.8148 28.1686 29.8712 27.9219 29.8712 27.6719C29.8712 27.422 29.8148 27.1752 29.7063 26.95C29.7063 26.5563 27.8688 22.575 27.1688 20.9563C26.4688 19.3375 25.8563 19.5563 25.375 19.5563H23.625C22.7914 19.5888 22.0047 19.9507 21.4375 20.5625C20.5221 21.4361 19.797 22.4893 19.3076 23.6563C18.8183 24.8232 18.5752 26.0786 18.5938 27.3438C18.8175 30.45 19.9597 33.4195 21.875 35.875C25.3898 41.0963 30.1983 45.317 35.8313 48.125C37.7563 48.9563 39.2438 49.4375 40.425 49.8313C42.0838 50.3327 43.8371 50.4375 45.5438 50.1375C46.6773 49.9076 47.7515 49.4472 48.6998 48.7849C49.648 48.1226 50.4501 47.2726 51.0563 46.2875C51.5607 45.071 51.727 43.7408 51.5375 42.4375C51.3188 42.1313 50.7938 41.9125 49.9625 41.5188Z" fill="#34AF23"/>
<path d="M58.1436 11.725C55.1179 8.67076 51.5113 6.25331 47.5364 4.61526C43.5615 2.97722 39.2988 2.15174 34.9998 2.18752C29.3048 2.21732 23.7174 3.74078 18.7954 6.60575C13.8735 9.47072 9.78937 13.5769 6.95097 18.5142C4.11257 23.4515 2.61925 29.0471 2.62014 34.7422C2.62103 40.4372 4.11611 46.0323 6.95606 50.9688L2.58105 67.8125L19.8186 63.4375C24.584 66.0306 29.9246 67.3846 35.3498 67.375H34.9998C41.4657 67.4171 47.7976 65.5326 53.1882 61.9616C58.5787 58.3906 62.7835 53.2951 65.2664 47.3248C67.7494 41.3545 68.3979 34.78 67.1293 28.4396C65.8607 22.0992 62.7325 16.2804 58.1436 11.725ZM34.9998 61.775C30.146 61.7789 25.3824 60.4632 21.2186 57.9688L20.2561 57.4L10.0186 60.0688L12.7311 50.0938L12.1186 49.0875C8.62449 43.4605 7.31748 36.7467 8.44552 30.22C9.57355 23.6932 13.0582 17.8075 18.2382 13.6797C23.4182 9.55188 29.9332 7.4691 36.5471 7.82653C43.161 8.18396 49.4136 10.9567 54.1186 15.6188C56.6409 18.1208 58.6401 21.0998 59.9996 24.3822C61.3592 27.6646 62.0518 31.1847 62.0373 34.7375C62.0257 41.9048 59.1734 48.7751 54.1054 53.8431C49.0374 58.9111 42.167 61.7634 34.9998 61.775Z" fill="#34AF23"/>
</svg>
