<svg width="70" height="70" viewBox="0 0 70 70" fill="none" xmlns="http://www.w3.org/2000/svg">
<path d="M49.9625 41.5188C49.1313 41.125 45.15 39.1563 44.4063 38.85C43.6625 38.5438 43.1375 38.4563 42.5688 39.2875C42 40.1188 40.4688 41.9125 39.9875 42.4813C39.5063 43.05 39.0688 43.0938 38.2375 42.4813C35.85 41.5231 33.6449 40.1616 31.7188 38.4563C29.9751 36.8146 28.4989 34.9104 27.3438 32.8125C26.8625 32.025 27.3438 31.5875 27.6938 31.15C28.0438 30.7125 28.4813 30.2313 28.9188 29.75C29.2387 29.3338 29.5034 28.878 29.7063 28.3938C29.8148 28.1686 29.8712 27.9219 29.8712 27.6719C29.8712 27.422 29.8148 27.1752 29.7063 26.95C29.7063 26.5563 27.8688 22.575 27.1688 20.9563C26.4688 19.3375 25.8563 19.5563 25.375 19.5563H23.625C22.7914 19.5888 22.0047 19.9507 21.4375 20.5625C20.5221 21.4361 19.797 22.4893 19.3076 23.6563C18.8183 24.8232 18.5752 26.0786 18.5938 27.3438C18.8175 30.45 19.9597 33.4195 21.875 35.875C25.3898 41.0963 30.1983 45.317 35.8313 48.125C37.7563 48.9563 39.2438 49.4375 40.425 49.8313C42.0838 50.3327 43.8371 50.4375 45.5438 50.1375C46.6773 49.9076 47.7515 49.4472 48.6998 48.7849C49.648 48.1226 50.4501 47.2726 51.0563 46.2875C51.5607 45.071 51.727 43.7408 51.5375 42.4375C51.3188 42.1313 50.7938 41.9125 49.9625 41.5188Z" fill="#263056"/>
<path d="M58.1436 11.7249C55.1179 8.67063 51.5113 6.25319 47.5364 4.61514C43.5615 2.9771 39.2988 2.15162 34.9998 2.18739C29.3048 2.2172 23.7174 3.74066 18.7954 6.60563C13.8735 9.47059 9.78937 13.5768 6.95097 18.5141C4.11257 23.4514 2.61925 29.047 2.62014 34.742C2.62103 40.4371 4.11611 46.0322 6.95606 50.9686L2.58105 67.8124L19.8186 63.4374C24.584 66.0305 29.9246 67.3844 35.3498 67.3749H34.9998C41.4657 67.417 47.7976 65.5324 53.1882 61.9615C58.5787 58.3905 62.7835 53.295 65.2664 47.3247C67.7494 41.3544 68.3979 34.7798 67.1293 28.4395C65.8607 22.0991 62.7325 16.2802 58.1436 11.7249ZM34.9998 61.7749C30.146 61.7787 25.3824 60.4631 21.2186 57.9686L20.2561 57.3999L10.0186 60.0686L12.7311 50.0936L12.1186 49.0874C8.62449 43.4604 7.31748 36.7466 8.44552 30.2198C9.57355 23.6931 13.0582 17.8074 18.2382 13.6796C23.4182 9.55176 29.9332 7.46898 36.5471 7.82641C43.161 8.18384 49.4136 10.9566 54.1186 15.6186C56.6409 18.1207 58.6401 21.0997 59.9996 24.3821C61.3592 27.6645 62.0518 31.1846 62.0373 34.7374C62.0257 41.9046 59.1734 48.775 54.1054 53.843C49.0374 58.911 42.167 61.7633 34.9998 61.7749Z" fill="#263056"/>
</svg>
